<svg width="256" height="33" viewBox="0 0 256 33" fill="none" xmlns="http://www.w3.org/2000/svg">
<path d="M6.39961 28.4L9.49961 28.1V4.29995H5.79961L2.69961 11.1H2.09961V3.69995H22.3996V11.2H21.7996L18.6996 4.39995H14.9996V28.2L18.0996 28.5V29H6.39961V28.4Z" fill="url(#paint0_linear_14_2185)"/>
<path d="M31.1992 28.4L33.4992 28.1V4.49995L31.1992 4.19995V3.69995H41.2992V4.29995L39.0992 4.59995V15.5H48.1992V4.49995L45.9992 4.19995V3.69995H55.9992V4.29995L53.7992 4.59995V28.2L55.9992 28.5V29H45.9992V28.4L48.1992 28.1V16.2H39.0992V28.1L41.2992 28.4V29H31.1992V28.4Z" fill="url(#paint1_linear_14_2185)"/>
<path d="M64.8996 28.4L67.1996 28.1V4.49995L64.8996 4.19995V3.69995H84.6996V10.6H84.0996L81.3996 4.39995H72.7996V15.5H77.2996L78.9996 11H79.5996V20.7H78.9996L77.2996 16H72.7996V28.2999H81.5996L84.1996 21.9H84.7996V29H64.8996V28.4Z" fill="url(#paint2_linear_14_2185)"/>
<path d="M159.899 28.4L162.099 28.1V5.19996L159.899 4.89996V4.39996H169.699V4.99996L167.499 5.29996V28.2L169.699 28.5V29H159.899V28.4Z" fill="url(#paint3_linear_14_2185)"/>
<path d="M188.799 29L180.299 4.70005L178.299 4.40005V3.80005H188.799V4.40005L186.199 4.70005L192.799 24.3L199.299 4.70005L196.599 4.40005V3.80005H202.499V4.40005L200.199 4.70005L192.599 28L188.799 29Z" fill="url(#paint4_linear_14_2185)"/>
<path d="M211.199 28.4L213.399 28.1V5.19996L211.199 4.89996V4.39996H220.999V4.99996L218.799 5.29996V28.2L220.999 28.5V29H211.199V28.4Z" fill="url(#paint5_linear_14_2185)"/>
<path d="M242.799 17.3L236.699 29H229.699V28.4L231.099 28.1L236.499 18.5L242.399 17.3" fill="url(#paint6_linear_14_2185)"/>
<path d="M244.099 3.79996L251.799 28.1L253.799 28.4V29H242.999V28.4L245.699 28.1L238.899 5.69996L244.099 3.79996Z" fill="url(#paint7_linear_14_2185)"/>
<path d="M119.299 6.29995C117.099 4.59995 113.899 3.69995 109.699 3.69995C107.699 3.69995 106.099 4.09995 104.799 4.99995L104.099 5.49995C102.499 6.79995 101.699 8.69995 101.699 11.1C101.699 12.6 102.099 13.9 102.799 15.1C103.499 16.1 104.399 16.9 105.499 17.3V28.2L103.299 28.5V29H113.799V28.4L112.399 28.2999L110.899 28.2V19.7H114.499C116.799 19.7 118.699 18.9 120.099 17.3C121.399 15.8 121.999 14.1 121.999 12C122.199 9.59995 121.199 7.69995 119.299 6.29995ZM105.599 16.9C104.599 16.4 103.699 15.7 103.099 14.8C102.399 13.7 102.099 12.5 102.099 11C102.099 8.69995 102.899 6.89995 104.499 5.59995C105.299 6.19995 105.699 6.99995 105.699 8.09995V16.9H105.599ZM115.599 17.1C114.499 18.6 112.899 19.3 110.999 19.3V16.3V12.7C110.999 8.99995 108.599 5.69995 105.299 4.99995H105.199C105.599 4.79995 105.999 4.59995 106.499 4.39995L106.699 4.29995C107.599 3.99995 108.599 3.89995 109.699 3.89995C111.799 3.89995 113.599 4.79995 114.999 6.49995C116.399 8.09995 117.099 9.99995 117.099 12.1C117.199 14.2 116.699 15.8 115.599 17.1Z" fill="url(#paint8_linear_14_2185)"/>
<path d="M149.3 28.1L144 18.4L138.1 17.2C144.1 16.7 147.9 14.5 147.9 10.3C147.9 6.00005 144.4 4.30005 140.7 4.30005H127.6V4.60005C127.6 4.60005 128.9 4.70005 130 5.80005C130.7 6.50005 130.6 7.70005 130.6 7.70005V28.1L128.4 28.4V29H138.1V28.4L136.1 28.1V17.3H137.8L143.8 28.9H150.9V28.3L149.3 28.1ZM136.9 17H135.9L135.8 4.70005C137.5 4.70005 139.1 5.30005 140.4 6.50005C141.7 7.70005 142.5 9.10005 142.6 10.9C142.8 12.6 142.3 14.1 141.1 15.3C140.1 16.4 138.7 17 136.9 17Z" fill="url(#paint9_linear_14_2185)"/>
<defs>
<linearGradient id="paint0_linear_14_2185" x1="-39.7705" y1="19.2737" x2="310.745" y2="-1.50434" gradientUnits="userSpaceOnUse">
<stop stop-color="#EAD5B5"/>
<stop offset="1e-08" stop-color="#EAD5B5"/>
<stop offset="0.4653" stop-color="#D4B992"/>
<stop offset="1" stop-color="#B79565"/>
</linearGradient>
<linearGradient id="paint1_linear_14_2185" x1="-39.6535" y1="21.255" x2="310.862" y2="0.477047" gradientUnits="userSpaceOnUse">
<stop stop-color="#EAD5B5"/>
<stop offset="1e-08" stop-color="#EAD5B5"/>
<stop offset="0.4653" stop-color="#D4B992"/>
<stop offset="1" stop-color="#B79565"/>
</linearGradient>
<linearGradient id="paint2_linear_14_2185" x1="-39.5439" y1="23.0966" x2="310.972" y2="2.31854" gradientUnits="userSpaceOnUse">
<stop stop-color="#EAD5B5"/>
<stop offset="1e-08" stop-color="#EAD5B5"/>
<stop offset="0.4653" stop-color="#D4B992"/>
<stop offset="1" stop-color="#B79565"/>
</linearGradient>
<linearGradient id="paint3_linear_14_2185" x1="-39.2084" y1="28.7634" x2="311.307" y2="7.98536" gradientUnits="userSpaceOnUse">
<stop stop-color="#EAD5B5"/>
<stop offset="1e-08" stop-color="#EAD5B5"/>
<stop offset="0.4653" stop-color="#D4B992"/>
<stop offset="1" stop-color="#B79565"/>
</linearGradient>
<linearGradient id="paint4_linear_14_2185" x1="-39.1585" y1="29.6097" x2="311.357" y2="8.83166" gradientUnits="userSpaceOnUse">
<stop stop-color="#EAD5B5"/>
<stop offset="1e-08" stop-color="#EAD5B5"/>
<stop offset="0.4653" stop-color="#D4B992"/>
<stop offset="1" stop-color="#B79565"/>
</linearGradient>
<linearGradient id="paint5_linear_14_2185" x1="-39.0285" y1="31.7992" x2="311.487" y2="11.0211" gradientUnits="userSpaceOnUse">
<stop stop-color="#EAD5B5"/>
<stop offset="1e-08" stop-color="#EAD5B5"/>
<stop offset="0.4653" stop-color="#D4B992"/>
<stop offset="1" stop-color="#B79565"/>
</linearGradient>
<linearGradient id="paint6_linear_14_2185" x1="-38.5655" y1="39.6093" x2="311.95" y2="18.8312" gradientUnits="userSpaceOnUse">
<stop stop-color="#EAD5B5"/>
<stop offset="1e-08" stop-color="#EAD5B5"/>
<stop offset="0.4653" stop-color="#D4B992"/>
<stop offset="1" stop-color="#B79565"/>
</linearGradient>
<linearGradient id="paint7_linear_14_2185" x1="-38.9294" y1="33.4723" x2="311.586" y2="12.6942" gradientUnits="userSpaceOnUse">
<stop stop-color="#EAD5B5"/>
<stop offset="1e-08" stop-color="#EAD5B5"/>
<stop offset="0.4653" stop-color="#D4B992"/>
<stop offset="1" stop-color="#B79565"/>
</linearGradient>
<linearGradient id="paint8_linear_14_2185" x1="-39.4147" y1="25.2826" x2="311.101" y2="4.50455" gradientUnits="userSpaceOnUse">
<stop stop-color="#EAD5B5"/>
<stop offset="1e-08" stop-color="#EAD5B5"/>
<stop offset="0.4653" stop-color="#D4B992"/>
<stop offset="1" stop-color="#B79565"/>
</linearGradient>
<linearGradient id="paint9_linear_14_2185" x1="-39.298" y1="27.2447" x2="311.218" y2="6.46676" gradientUnits="userSpaceOnUse">
<stop stop-color="#EAD5B5"/>
<stop offset="1e-08" stop-color="#EAD5B5"/>
<stop offset="0.4653" stop-color="#D4B992"/>
<stop offset="1" stop-color="#B79565"/>
</linearGradient>
</defs>
</svg>
